<?xml version="1.0" encoding="UTF-8" standalone="no"?>
<!DOCTYPE svg PUBLIC "-//W3C//DTD SVG 1.1//EN" "http://www.w3.org/Graphics/SVG/1.1/DTD/svg11.dtd">
<svg width="100%" height="100%" viewBox="0 0 44 62" version="1.1" xmlns="http://www.w3.org/2000/svg" xmlns:xlink="http://www.w3.org/1999/xlink" xml:space="preserve" xmlns:serif="http://www.serif.com/" style="fill-rule:evenodd;clip-rule:evenodd;stroke-linejoin:round;stroke-miterlimit:2;">
    <g transform="matrix(0.102574,0,0,0.10357,-138.653,-4.69011)">
        <g transform="matrix(287.999,0,0,287.999,1449.87,279.916)">
            <g>
                <path d="M0.794,0.078C0.653,0.078 0.54,0.074 0.455,0.065C0.37,0.056 0.296,0.038 0.235,0.009C0.174,-0.019 0.122,-0.061 0.081,-0.118C0.036,-0.183 0.014,-0.273 0.014,-0.389C0.014,-0.524 0.048,-0.625 0.115,-0.692C0.182,-0.759 0.275,-0.792 0.396,-0.792C0.516,-0.792 0.61,-0.762 0.677,-0.704C0.744,-0.645 0.778,-0.556 0.778,-0.439C0.778,-0.388 0.77,-0.341 0.753,-0.297C0.737,-0.252 0.709,-0.211 0.669,-0.174L0.674,-0.164L0.794,-0.164L0.794,0.078ZM0.396,-0.164C0.441,-0.164 0.464,-0.189 0.464,-0.238L0.464,-0.54C0.464,-0.589 0.441,-0.614 0.396,-0.614C0.351,-0.614 0.328,-0.589 0.328,-0.54L0.328,-0.238C0.328,-0.189 0.351,-0.164 0.396,-0.164Z" style="fill:rgb(229,0,0);fill-rule:nonzero;"/>
            </g>
        </g>
        <g transform="matrix(1,0,0,1.18012,-1633.78,-19.478)">
            <g id="Layer2">
                <ellipse cx="3198.06" cy="157.951" rx="84.684" ry="81.447" style="fill:rgb(229,0,0);"/>
            </g>
        </g>
        <g transform="matrix(-1.38997,1.07367,-1.00145,-1.29647,3738.74,-833.234)">
            <path d="M1338.27,285.963L1362.91,304.476L1350.59,322.013L1370.53,328.711L1361.12,358.667L1341.17,351.969L1341.17,373.645L1310.71,373.645L1310.71,351.969L1290.77,358.667L1281.35,328.711L1301.29,322.013L1288.97,304.476L1313.62,285.963L1325.94,303.499L1338.27,285.963Z" style="fill:white;"/>
        </g>
    </g>
    <g transform="matrix(1,0,0,1,-5.00932,6.29719)">
        <g transform="matrix(14,0,0,14,4.68632,36.709)">
            <path d="M0.384,-0.366L0.252,-0.366L0.252,-0.204C0.252,-0.191 0.253,-0.179 0.254,-0.168C0.255,-0.157 0.258,-0.147 0.263,-0.139C0.268,-0.131 0.275,-0.125 0.285,-0.121C0.294,-0.116 0.307,-0.114 0.323,-0.114C0.331,-0.114 0.341,-0.115 0.355,-0.117C0.368,-0.118 0.377,-0.122 0.384,-0.128L0.384,-0.003C0.367,0.003 0.35,0.007 0.332,0.009C0.314,0.011 0.296,0.012 0.279,0.012C0.254,0.012 0.23,0.009 0.209,0.004C0.188,-0.001 0.169,-0.01 0.153,-0.022C0.137,-0.033 0.125,-0.048 0.116,-0.067C0.107,-0.086 0.102,-0.108 0.102,-0.135L0.102,-0.366L0.006,-0.366L0.006,-0.486L0.102,-0.486L0.102,-0.63L0.252,-0.63L0.252,-0.486L0.384,-0.486L0.384,-0.366Z" style="fill:rgb(248,248,248);fill-rule:nonzero;"/>
        </g>
        <g transform="matrix(14,0,0,14,10.3843,36.709)">
            <path d="M0.358,-0.061L0.356,-0.061C0.339,-0.035 0.317,-0.016 0.29,-0.005C0.262,0.006 0.233,0.012 0.202,0.012C0.179,0.012 0.158,0.009 0.137,0.003C0.116,-0.004 0.097,-0.013 0.081,-0.026C0.065,-0.039 0.052,-0.054 0.043,-0.073C0.034,-0.092 0.029,-0.113 0.029,-0.138C0.029,-0.166 0.034,-0.19 0.045,-0.209C0.055,-0.228 0.069,-0.244 0.087,-0.257C0.104,-0.27 0.124,-0.28 0.147,-0.287C0.17,-0.294 0.193,-0.299 0.218,-0.302C0.242,-0.305 0.266,-0.307 0.291,-0.308C0.315,-0.309 0.337,-0.309 0.358,-0.309C0.358,-0.336 0.349,-0.357 0.33,-0.373C0.311,-0.388 0.288,-0.396 0.262,-0.396C0.237,-0.396 0.215,-0.391 0.195,-0.381C0.174,-0.37 0.156,-0.356 0.14,-0.338L0.06,-0.42C0.088,-0.446 0.121,-0.466 0.158,-0.479C0.195,-0.492 0.234,-0.498 0.274,-0.498C0.318,-0.498 0.354,-0.493 0.383,-0.482C0.411,-0.47 0.434,-0.454 0.451,-0.433C0.468,-0.412 0.479,-0.386 0.486,-0.355C0.493,-0.323 0.496,-0.288 0.496,-0.247L0.496,-0L0.358,-0L0.358,-0.061ZM0.321,-0.213C0.31,-0.213 0.296,-0.213 0.279,-0.212C0.262,-0.211 0.245,-0.208 0.23,-0.203C0.214,-0.198 0.201,-0.191 0.19,-0.182C0.179,-0.173 0.173,-0.16 0.173,-0.143C0.173,-0.125 0.181,-0.112 0.196,-0.103C0.211,-0.094 0.227,-0.09 0.244,-0.09C0.259,-0.09 0.273,-0.092 0.287,-0.096C0.3,-0.1 0.312,-0.106 0.323,-0.113C0.334,-0.12 0.342,-0.13 0.349,-0.141C0.355,-0.152 0.358,-0.166 0.358,-0.181L0.358,-0.213L0.321,-0.213Z" style="fill:rgb(248,248,248);fill-rule:nonzero;"/>
        </g>
        <g transform="matrix(14,0,0,14,17.9023,36.709)">
            <path d="M0.384,-0.366L0.252,-0.366L0.252,-0.204C0.252,-0.191 0.253,-0.179 0.254,-0.168C0.255,-0.157 0.258,-0.147 0.263,-0.139C0.268,-0.131 0.275,-0.125 0.285,-0.121C0.294,-0.116 0.307,-0.114 0.323,-0.114C0.331,-0.114 0.341,-0.115 0.355,-0.117C0.368,-0.118 0.377,-0.122 0.384,-0.128L0.384,-0.003C0.367,0.003 0.35,0.007 0.332,0.009C0.314,0.011 0.296,0.012 0.279,0.012C0.254,0.012 0.23,0.009 0.209,0.004C0.188,-0.001 0.169,-0.01 0.153,-0.022C0.137,-0.033 0.125,-0.048 0.116,-0.067C0.107,-0.086 0.102,-0.108 0.102,-0.135L0.102,-0.366L0.006,-0.366L0.006,-0.486L0.102,-0.486L0.102,-0.63L0.252,-0.63L0.252,-0.486L0.384,-0.486L0.384,-0.366Z" style="fill:rgb(248,248,248);fill-rule:nonzero;"/>
        </g>
        <g transform="matrix(14,0,0,14,23.6003,36.709)">
            <path d="M0.384,-0.366L0.252,-0.366L0.252,-0.204C0.252,-0.191 0.253,-0.179 0.254,-0.168C0.255,-0.157 0.258,-0.147 0.263,-0.139C0.268,-0.131 0.275,-0.125 0.285,-0.121C0.294,-0.116 0.307,-0.114 0.323,-0.114C0.331,-0.114 0.341,-0.115 0.355,-0.117C0.368,-0.118 0.377,-0.122 0.384,-0.128L0.384,-0.003C0.367,0.003 0.35,0.007 0.332,0.009C0.314,0.011 0.296,0.012 0.279,0.012C0.254,0.012 0.23,0.009 0.209,0.004C0.188,-0.001 0.169,-0.01 0.153,-0.022C0.137,-0.033 0.125,-0.048 0.116,-0.067C0.107,-0.086 0.102,-0.108 0.102,-0.135L0.102,-0.366L0.006,-0.366L0.006,-0.486L0.102,-0.486L0.102,-0.63L0.252,-0.63L0.252,-0.486L0.384,-0.486L0.384,-0.366Z" style="fill:rgb(248,248,248);fill-rule:nonzero;"/>
        </g>
        <g transform="matrix(14,0,0,14,29.2983,36.709)">
            <path d="M0.035,-0.243C0.035,-0.282 0.042,-0.317 0.056,-0.348C0.07,-0.379 0.089,-0.406 0.114,-0.429C0.138,-0.451 0.167,-0.468 0.2,-0.48C0.233,-0.492 0.268,-0.498 0.305,-0.498C0.342,-0.498 0.378,-0.492 0.411,-0.48C0.444,-0.468 0.472,-0.451 0.497,-0.429C0.521,-0.406 0.54,-0.379 0.554,-0.348C0.568,-0.317 0.575,-0.282 0.575,-0.243C0.575,-0.204 0.568,-0.169 0.554,-0.138C0.54,-0.107 0.521,-0.08 0.497,-0.058C0.472,-0.035 0.444,-0.018 0.411,-0.006C0.378,0.006 0.342,0.012 0.305,0.012C0.268,0.012 0.233,0.006 0.2,-0.006C0.167,-0.018 0.138,-0.035 0.114,-0.058C0.089,-0.08 0.07,-0.107 0.056,-0.138C0.042,-0.169 0.035,-0.204 0.035,-0.243ZM0.185,-0.243C0.185,-0.206 0.196,-0.177 0.217,-0.154C0.238,-0.131 0.267,-0.12 0.305,-0.12C0.343,-0.12 0.373,-0.131 0.394,-0.154C0.415,-0.177 0.425,-0.206 0.425,-0.243C0.425,-0.28 0.415,-0.309 0.394,-0.332C0.373,-0.355 0.343,-0.366 0.305,-0.366C0.267,-0.366 0.238,-0.355 0.217,-0.332C0.196,-0.309 0.185,-0.28 0.185,-0.243Z" style="fill:rgb(248,248,248);fill-rule:nonzero;"/>
        </g>
        <g transform="matrix(14,0,0,14,37.8383,36.709)">
            <path d="M0.035,-0.243C0.035,-0.282 0.042,-0.317 0.056,-0.348C0.07,-0.379 0.089,-0.406 0.114,-0.429C0.138,-0.451 0.167,-0.468 0.2,-0.48C0.233,-0.492 0.268,-0.498 0.305,-0.498C0.342,-0.498 0.378,-0.492 0.411,-0.48C0.444,-0.468 0.472,-0.451 0.497,-0.429C0.521,-0.406 0.54,-0.379 0.554,-0.348C0.568,-0.317 0.575,-0.282 0.575,-0.243C0.575,-0.204 0.568,-0.169 0.554,-0.138C0.54,-0.107 0.521,-0.08 0.497,-0.058C0.472,-0.035 0.444,-0.018 0.411,-0.006C0.378,0.006 0.342,0.012 0.305,0.012C0.268,0.012 0.233,0.006 0.2,-0.006C0.167,-0.018 0.138,-0.035 0.114,-0.058C0.089,-0.08 0.07,-0.107 0.056,-0.138C0.042,-0.169 0.035,-0.204 0.035,-0.243ZM0.185,-0.243C0.185,-0.206 0.196,-0.177 0.217,-0.154C0.238,-0.131 0.267,-0.12 0.305,-0.12C0.343,-0.12 0.373,-0.131 0.394,-0.154C0.415,-0.177 0.425,-0.206 0.425,-0.243C0.425,-0.28 0.415,-0.309 0.394,-0.332C0.373,-0.355 0.343,-0.366 0.305,-0.366C0.267,-0.366 0.238,-0.355 0.217,-0.332C0.196,-0.309 0.185,-0.28 0.185,-0.243Z" style="fill:rgb(248,248,248);fill-rule:nonzero;"/>
        </g>
        <g transform="matrix(14,0,0,14,46.3783,36.709)">
            <rect x="0.055" y="-0.756" width="0.15" height="0.756" style="fill:rgb(248,248,248);fill-rule:nonzero;"/>
        </g>
    </g>
</svg>
