<?xml version="1.0" encoding="UTF-8" standalone="no"?>
<!DOCTYPE svg PUBLIC "-//W3C//DTD SVG 1.1//EN" "http://www.w3.org/Graphics/SVG/1.1/DTD/svg11.dtd">
<svg width="100%" height="100%" viewBox="0 0 44 62" version="1.1" xmlns="http://www.w3.org/2000/svg" xmlns:xlink="http://www.w3.org/1999/xlink" xml:space="preserve" xmlns:serif="http://www.serif.com/" style="fill-rule:evenodd;clip-rule:evenodd;stroke-linejoin:round;stroke-miterlimit:2;">
    <g transform="matrix(0.102574,0,0,0.10357,-138.691,-5.36693)">
        <g transform="matrix(1.02934,0,0,1.02934,944.736,143.594)">
            <g transform="matrix(279.79,0,0,279.79,490.734,132.436)">
                <path d="M0.794,0.078C0.653,0.078 0.54,0.074 0.455,0.065C0.37,0.056 0.296,0.038 0.235,0.009C0.174,-0.019 0.122,-0.061 0.081,-0.118C0.036,-0.183 0.014,-0.273 0.014,-0.389C0.014,-0.524 0.048,-0.625 0.115,-0.692C0.182,-0.759 0.275,-0.792 0.396,-0.792C0.516,-0.792 0.61,-0.762 0.677,-0.704C0.744,-0.645 0.778,-0.556 0.778,-0.439C0.778,-0.388 0.77,-0.341 0.753,-0.297C0.737,-0.252 0.709,-0.211 0.669,-0.174L0.674,-0.164L0.794,-0.164L0.794,0.078ZM0.396,-0.164C0.441,-0.164 0.464,-0.189 0.464,-0.238L0.464,-0.54C0.464,-0.589 0.441,-0.614 0.396,-0.614C0.351,-0.614 0.328,-0.589 0.328,-0.54L0.328,-0.238C0.328,-0.189 0.351,-0.164 0.396,-0.164Z" style="fill:rgb(229,0,0);fill-rule:nonzero;"/>
            </g>
        </g>
        <g transform="matrix(1,0,0,1.18012,-1633.78,-19.478)">
            <g id="Layer2">
                <ellipse cx="3198.06" cy="157.951" rx="84.684" ry="81.447" style="fill:rgb(229,0,0);"/>
            </g>
        </g>
        <g transform="matrix(-1.38997,1.07367,-1.00145,-1.29647,3738.74,-833.234)">
            <path d="M1338.27,285.963L1362.91,304.476L1350.59,322.013L1370.53,328.711L1361.12,358.667L1341.17,351.969L1341.17,373.645L1310.71,373.645L1310.71,351.969L1290.77,358.667L1281.35,328.711L1301.29,322.013L1288.97,304.476L1313.62,285.963L1325.94,303.499L1338.27,285.963Z" style="fill:white;"/>
        </g>
    </g>
    <g transform="matrix(0.118852,0,0,0.120007,22.1457,44.2624)">
        <g transform="matrix(140.476,0,0,140.476,-164.551,0)">
            <path d="M0.396,-0.507L0.466,-0.507L0.466,0.206L0.396,0.206L0.396,-0.507ZM0.239,0.007C0.202,0.007 0.17,-0.001 0.144,-0.017C0.118,-0.033 0.098,-0.056 0.084,-0.087C0.07,-0.118 0.063,-0.154 0.063,-0.197L0.063,-0.308C0.063,-0.351 0.07,-0.389 0.083,-0.419C0.097,-0.45 0.116,-0.474 0.142,-0.49C0.167,-0.506 0.198,-0.514 0.234,-0.514C0.273,-0.514 0.307,-0.507 0.336,-0.492C0.365,-0.478 0.388,-0.454 0.406,-0.421L0.396,-0.324C0.396,-0.346 0.39,-0.367 0.38,-0.387C0.37,-0.407 0.355,-0.423 0.335,-0.435C0.316,-0.447 0.293,-0.454 0.267,-0.454C0.224,-0.454 0.192,-0.441 0.168,-0.415C0.145,-0.39 0.134,-0.354 0.134,-0.307L0.134,-0.197C0.134,-0.152 0.145,-0.116 0.168,-0.091C0.192,-0.066 0.224,-0.053 0.267,-0.053C0.293,-0.053 0.315,-0.06 0.335,-0.072C0.354,-0.085 0.369,-0.101 0.38,-0.122C0.39,-0.142 0.396,-0.163 0.396,-0.186L0.402,-0.08C0.39,-0.049 0.369,-0.026 0.342,-0.013C0.314,0.001 0.28,0.007 0.239,0.007Z" style="fill:rgb(187,187,187);fill-rule:nonzero;"/>
        </g>
        <g transform="matrix(140.476,0,0,140.476,-88.8262,0)">
            <path d="M0.389,-0.321C0.389,-0.362 0.378,-0.394 0.356,-0.417C0.334,-0.439 0.303,-0.451 0.262,-0.451C0.238,-0.451 0.215,-0.447 0.191,-0.439C0.168,-0.431 0.148,-0.42 0.13,-0.406L0.079,-0.441C0.098,-0.464 0.123,-0.482 0.155,-0.495C0.186,-0.508 0.221,-0.514 0.259,-0.514C0.301,-0.514 0.337,-0.507 0.367,-0.492C0.397,-0.477 0.42,-0.456 0.436,-0.427C0.451,-0.399 0.459,-0.365 0.459,-0.326L0.459,-0L0.389,-0L0.389,-0.321ZM0.24,0.007C0.181,0.007 0.135,-0.006 0.103,-0.034C0.07,-0.061 0.054,-0.1 0.054,-0.149C0.054,-0.197 0.069,-0.234 0.098,-0.26C0.128,-0.287 0.17,-0.3 0.225,-0.3L0.393,-0.3L0.4,-0.234L0.225,-0.234C0.193,-0.234 0.167,-0.227 0.15,-0.212C0.132,-0.197 0.123,-0.176 0.123,-0.149C0.123,-0.121 0.134,-0.099 0.156,-0.083C0.179,-0.067 0.21,-0.059 0.251,-0.059C0.295,-0.059 0.328,-0.063 0.353,-0.072C0.377,-0.081 0.389,-0.093 0.389,-0.109L0.399,-0.043C0.389,-0.033 0.376,-0.024 0.36,-0.016C0.344,-0.008 0.326,-0.002 0.306,0.001C0.286,0.005 0.264,0.007 0.24,0.007Z" style="fill:rgb(187,187,187);fill-rule:nonzero;"/>
        </g>
        <g transform="matrix(140.476,0,0,140.476,-14.0613,0)">
            <path d="M0.078,-0.507L0.148,-0.507L0.148,-0L0.078,-0L0.078,-0.507ZM0.376,-0.416C0.366,-0.427 0.353,-0.435 0.337,-0.44C0.321,-0.446 0.303,-0.449 0.282,-0.449C0.24,-0.449 0.207,-0.437 0.184,-0.415C0.16,-0.392 0.148,-0.361 0.148,-0.321L0.138,-0.418C0.157,-0.449 0.181,-0.472 0.211,-0.489C0.241,-0.506 0.274,-0.514 0.31,-0.514C0.333,-0.514 0.354,-0.511 0.373,-0.504C0.392,-0.497 0.408,-0.488 0.422,-0.475L0.376,-0.416Z" style="fill:rgb(187,187,187);fill-rule:nonzero;"/>
        </g>
        <g transform="matrix(140.476,0,0,140.476,45.8878,0)">
            <path d="M0.21,0.002C0.169,0.002 0.139,-0.009 0.12,-0.031C0.101,-0.054 0.091,-0.088 0.091,-0.132L0.091,-0.654L0.162,-0.654L0.162,-0.131C0.162,-0.109 0.167,-0.092 0.176,-0.081C0.186,-0.069 0.201,-0.063 0.22,-0.063L0.268,-0.063L0.268,0.002L0.21,0.002ZM0.039,-0.507L0.268,-0.507L0.268,-0.446L0.039,-0.446L0.039,-0.507Z" style="fill:rgb(187,187,187);fill-rule:nonzero;"/>
        </g>
        <g transform="matrix(140.476,0,0,140.476,91.707,0)">
            <path d="M0.252,0.007C0.225,0.007 0.199,0.005 0.173,-0.001C0.147,-0.006 0.123,-0.014 0.101,-0.024C0.079,-0.035 0.059,-0.047 0.042,-0.062L0.082,-0.111C0.11,-0.093 0.138,-0.078 0.168,-0.068C0.198,-0.058 0.226,-0.053 0.252,-0.053C0.301,-0.053 0.338,-0.061 0.365,-0.078C0.392,-0.094 0.405,-0.118 0.405,-0.148C0.405,-0.17 0.398,-0.187 0.385,-0.198C0.373,-0.209 0.356,-0.216 0.337,-0.22C0.317,-0.224 0.29,-0.227 0.255,-0.23L0.228,-0.232C0.194,-0.235 0.166,-0.24 0.144,-0.247C0.121,-0.253 0.102,-0.265 0.087,-0.283C0.072,-0.301 0.064,-0.327 0.064,-0.361C0.064,-0.393 0.072,-0.421 0.088,-0.444C0.104,-0.467 0.127,-0.484 0.157,-0.496C0.188,-0.508 0.224,-0.514 0.267,-0.514C0.289,-0.514 0.311,-0.512 0.333,-0.508C0.356,-0.503 0.377,-0.497 0.397,-0.489C0.418,-0.48 0.436,-0.47 0.453,-0.458L0.413,-0.41C0.389,-0.424 0.363,-0.435 0.337,-0.443C0.311,-0.45 0.287,-0.454 0.264,-0.454C0.222,-0.454 0.188,-0.446 0.165,-0.43C0.142,-0.414 0.13,-0.392 0.13,-0.363C0.13,-0.343 0.136,-0.328 0.149,-0.318C0.162,-0.308 0.178,-0.301 0.197,-0.298C0.216,-0.295 0.243,-0.292 0.277,-0.29L0.288,-0.29C0.289,-0.29 0.29,-0.289 0.291,-0.289C0.326,-0.287 0.357,-0.283 0.382,-0.276C0.406,-0.269 0.427,-0.256 0.444,-0.235C0.461,-0.215 0.47,-0.186 0.47,-0.148C0.47,-0.115 0.461,-0.087 0.444,-0.064C0.427,-0.041 0.403,-0.023 0.37,-0.011C0.338,0.001 0.298,0.007 0.252,0.007Z" style="fill:rgb(187,187,187);fill-rule:nonzero;"/>
        </g>
        <g transform="matrix(140.476,0,0,140.476,-192.16,140.476)">
            <path d="M0.252,0.007C0.225,0.007 0.199,0.005 0.173,-0.001C0.147,-0.006 0.123,-0.014 0.101,-0.024C0.079,-0.035 0.059,-0.047 0.042,-0.062L0.082,-0.111C0.11,-0.093 0.138,-0.078 0.168,-0.068C0.198,-0.058 0.226,-0.053 0.252,-0.053C0.301,-0.053 0.338,-0.061 0.365,-0.078C0.392,-0.094 0.405,-0.118 0.405,-0.148C0.405,-0.17 0.398,-0.187 0.385,-0.198C0.373,-0.209 0.356,-0.216 0.337,-0.22C0.317,-0.224 0.29,-0.227 0.255,-0.23L0.228,-0.232C0.194,-0.235 0.166,-0.24 0.144,-0.247C0.121,-0.253 0.102,-0.265 0.087,-0.283C0.072,-0.301 0.064,-0.327 0.064,-0.361C0.064,-0.393 0.072,-0.421 0.088,-0.444C0.104,-0.467 0.127,-0.484 0.157,-0.496C0.188,-0.508 0.224,-0.514 0.267,-0.514C0.289,-0.514 0.311,-0.512 0.333,-0.508C0.356,-0.503 0.377,-0.497 0.397,-0.489C0.418,-0.48 0.436,-0.47 0.453,-0.458L0.413,-0.41C0.389,-0.424 0.363,-0.435 0.337,-0.443C0.311,-0.45 0.287,-0.454 0.264,-0.454C0.222,-0.454 0.188,-0.446 0.165,-0.43C0.142,-0.414 0.13,-0.392 0.13,-0.363C0.13,-0.343 0.136,-0.328 0.149,-0.318C0.162,-0.308 0.178,-0.301 0.197,-0.298C0.216,-0.295 0.243,-0.292 0.277,-0.29L0.288,-0.29C0.289,-0.29 0.29,-0.289 0.291,-0.289C0.326,-0.287 0.357,-0.283 0.382,-0.276C0.406,-0.269 0.427,-0.256 0.444,-0.235C0.461,-0.215 0.47,-0.186 0.47,-0.148C0.47,-0.115 0.461,-0.087 0.444,-0.064C0.427,-0.041 0.403,-0.023 0.37,-0.011C0.338,0.001 0.298,0.007 0.252,0.007Z" style="fill:white;fill-rule:nonzero;"/>
        </g>
        <g transform="matrix(140.476,0,0,140.476,-119.315,140.476)">
            <path d="M0.21,0.002C0.169,0.002 0.139,-0.009 0.12,-0.031C0.101,-0.054 0.091,-0.088 0.091,-0.132L0.091,-0.654L0.162,-0.654L0.162,-0.131C0.162,-0.109 0.167,-0.092 0.176,-0.081C0.186,-0.069 0.201,-0.063 0.22,-0.063L0.268,-0.063L0.268,0.002L0.21,0.002ZM0.039,-0.507L0.268,-0.507L0.268,-0.446L0.039,-0.446L0.039,-0.507Z" style="fill:white;fill-rule:nonzero;"/>
        </g>
        <g transform="matrix(140.476,0,0,140.476,-73.496,140.476)">
            <path d="M0.413,-0.507L0.483,-0.507L0.483,-0L0.413,-0L0.413,-0.507ZM0.148,-0.199C0.148,-0.154 0.16,-0.12 0.183,-0.095C0.206,-0.07 0.239,-0.058 0.281,-0.058C0.323,-0.058 0.356,-0.069 0.379,-0.092C0.402,-0.114 0.413,-0.146 0.413,-0.187L0.42,-0.081C0.408,-0.056 0.387,-0.035 0.359,-0.018C0.33,-0.001 0.295,0.007 0.253,0.007C0.197,0.007 0.154,-0.011 0.124,-0.047C0.093,-0.083 0.078,-0.133 0.078,-0.199L0.078,-0.507L0.148,-0.507L0.148,-0.199Z" style="fill:white;fill-rule:nonzero;"/>
        </g>
        <g transform="matrix(140.476,0,0,140.476,4.62994,140.476)">
            <path d="M0.396,-0.71L0.466,-0.71L0.466,-0L0.396,-0L0.396,-0.71ZM0.239,0.007C0.202,0.007 0.17,-0.001 0.144,-0.017C0.118,-0.033 0.098,-0.056 0.084,-0.087C0.07,-0.118 0.063,-0.154 0.063,-0.197L0.063,-0.308C0.063,-0.351 0.07,-0.389 0.083,-0.419C0.097,-0.45 0.116,-0.474 0.142,-0.49C0.167,-0.506 0.198,-0.514 0.234,-0.514C0.273,-0.514 0.307,-0.507 0.336,-0.492C0.365,-0.478 0.388,-0.454 0.406,-0.421L0.396,-0.324C0.396,-0.346 0.39,-0.367 0.38,-0.387C0.37,-0.407 0.355,-0.423 0.335,-0.435C0.316,-0.447 0.293,-0.454 0.267,-0.454C0.224,-0.454 0.192,-0.441 0.168,-0.415C0.145,-0.39 0.134,-0.354 0.134,-0.307L0.134,-0.197C0.134,-0.152 0.145,-0.116 0.168,-0.091C0.192,-0.066 0.224,-0.053 0.267,-0.053C0.293,-0.053 0.315,-0.06 0.335,-0.072C0.354,-0.085 0.369,-0.101 0.38,-0.122C0.39,-0.142 0.396,-0.163 0.396,-0.186L0.402,-0.08C0.39,-0.049 0.369,-0.026 0.342,-0.013C0.314,0.001 0.28,0.007 0.239,0.007Z" style="fill:white;fill-rule:nonzero;"/>
        </g>
        <g transform="matrix(140.476,0,0,140.476,80.3551,140.476)">
            <path d="M0.093,-0.71L0.163,-0.71L0.163,-0.64L0.093,-0.64L0.093,-0.71ZM0.093,-0.507L0.163,-0.507L0.163,-0L0.093,-0L0.093,-0.507Z" style="fill:white;fill-rule:nonzero;"/>
        </g>
        <g transform="matrix(140.476,0,0,140.476,115.611,140.476)">
            <path d="M0.272,0.007C0.229,0.007 0.191,-0.001 0.16,-0.019C0.128,-0.036 0.105,-0.061 0.088,-0.094C0.072,-0.127 0.063,-0.167 0.063,-0.213L0.063,-0.296C0.063,-0.342 0.072,-0.381 0.088,-0.414C0.105,-0.447 0.128,-0.471 0.16,-0.489C0.191,-0.506 0.229,-0.514 0.272,-0.514C0.316,-0.514 0.354,-0.506 0.385,-0.489C0.417,-0.471 0.44,-0.447 0.457,-0.414C0.473,-0.381 0.481,-0.342 0.481,-0.296L0.481,-0.212C0.481,-0.166 0.473,-0.126 0.457,-0.094C0.44,-0.061 0.417,-0.036 0.385,-0.019C0.354,-0.001 0.316,0.007 0.272,0.007ZM0.272,-0.058C0.316,-0.058 0.351,-0.072 0.375,-0.098C0.399,-0.125 0.411,-0.163 0.411,-0.212L0.411,-0.296C0.411,-0.344 0.399,-0.382 0.375,-0.409C0.351,-0.435 0.316,-0.449 0.272,-0.449C0.228,-0.449 0.194,-0.435 0.17,-0.409C0.146,-0.382 0.134,-0.344 0.134,-0.296L0.134,-0.212C0.134,-0.163 0.146,-0.125 0.17,-0.098C0.194,-0.072 0.228,-0.058 0.272,-0.058Z" style="fill:white;fill-rule:nonzero;"/>
        </g>
    </g>
</svg>
