<?xml version="1.0" encoding="UTF-8" standalone="no"?>
<!DOCTYPE svg PUBLIC "-//W3C//DTD SVG 1.1//EN" "http://www.w3.org/Graphics/SVG/1.1/DTD/svg11.dtd">
<svg width="100%" height="100%" viewBox="0 0 26 26" version="1.1" xmlns="http://www.w3.org/2000/svg" xmlns:xlink="http://www.w3.org/1999/xlink" xml:space="preserve" xmlns:serif="http://www.serif.com/" style="fill-rule:evenodd;clip-rule:evenodd;stroke-linecap:round;stroke-linejoin:round;stroke-miterlimit:1.5;">
    <g transform="matrix(0.776174,0,0,0.856815,-2463.97,-264.896)">
        <ellipse cx="3191.1" cy="324.184" rx="15.46" ry="14.005" style="fill:none;stroke:rgb(255,0,0);stroke-width:2.13px;"/>
    </g>
    <g transform="matrix(1,0,0,1,-3177.54,-311.365)">
        <g transform="matrix(16,0,0,16,3188.18,329.821)">
            <path d="M0.078,-0.7L0.191,-0.7L0.172,-0.221L0.096,-0.221L0.078,-0.7ZM0.135,0.006C0.116,0.006 0.101,-0 0.088,-0.013C0.075,-0.025 0.069,-0.04 0.069,-0.058C0.069,-0.076 0.075,-0.091 0.088,-0.103C0.101,-0.116 0.116,-0.122 0.135,-0.122C0.154,-0.122 0.169,-0.116 0.181,-0.103C0.193,-0.091 0.199,-0.076 0.199,-0.058C0.199,-0.04 0.193,-0.025 0.181,-0.013C0.168,-0 0.153,0.006 0.135,0.006Z" style="fill:rgb(255,0,0);fill-rule:nonzero;"/>
        </g>
    </g>
</svg>
