<?xml version="1.0" encoding="UTF-8" standalone="no"?>
<!DOCTYPE svg PUBLIC "-//W3C//DTD SVG 1.1//EN" "http://www.w3.org/Graphics/SVG/1.1/DTD/svg11.dtd">
<svg width="100%" height="100%" viewBox="0 0 32 32" version="1.1" xmlns="http://www.w3.org/2000/svg" xmlns:xlink="http://www.w3.org/1999/xlink" xml:space="preserve" xmlns:serif="http://www.serif.com/" style="fill-rule:evenodd;clip-rule:evenodd;stroke-linecap:round;stroke-linejoin:round;stroke-miterlimit:1.5;">
    <g transform="matrix(1.32209,0,0,1.26525,-4203.69,-388.66)">
        <g transform="matrix(3.95178,0,0,3.95178,3188.18,320.881)">
            <path d="M0.421,0.01C0.35,0.01 0.285,-0.006 0.228,-0.037C0.171,-0.068 0.126,-0.111 0.093,-0.166C0.06,-0.221 0.044,-0.282 0.044,-0.35C0.044,-0.418 0.06,-0.48 0.093,-0.535C0.126,-0.59 0.171,-0.632 0.228,-0.664C0.285,-0.695 0.35,-0.71 0.421,-0.71C0.492,-0.71 0.557,-0.695 0.614,-0.664C0.671,-0.632 0.716,-0.59 0.749,-0.535C0.782,-0.48 0.798,-0.419 0.798,-0.35C0.798,-0.281 0.782,-0.22 0.749,-0.165C0.716,-0.11 0.671,-0.068 0.614,-0.037C0.557,-0.006 0.492,0.01 0.421,0.01ZM0.421,-0.104C0.468,-0.104 0.51,-0.115 0.547,-0.136C0.584,-0.157 0.614,-0.186 0.635,-0.224C0.656,-0.261 0.667,-0.303 0.667,-0.35C0.667,-0.397 0.656,-0.439 0.635,-0.476C0.614,-0.514 0.584,-0.544 0.547,-0.565C0.51,-0.586 0.468,-0.596 0.421,-0.596C0.374,-0.596 0.332,-0.586 0.295,-0.565C0.258,-0.544 0.228,-0.514 0.207,-0.476C0.186,-0.439 0.175,-0.397 0.175,-0.35C0.175,-0.303 0.186,-0.261 0.207,-0.224C0.228,-0.186 0.258,-0.157 0.295,-0.136C0.332,-0.115 0.374,-0.104 0.421,-0.104Z" style="fill:rgb(68,189,50);fill-rule:nonzero;"/>
        </g>
        <g transform="matrix(3.95178,0,0,3.95178,3191.51,320.881)">
            <path d="M0.335,-0.293L0.224,-0.179L0.224,-0L0.094,-0L0.094,-0.7L0.224,-0.7L0.224,-0.341L0.57,-0.7L0.716,-0.7L0.422,-0.387L0.734,-0L0.582,-0L0.335,-0.293Z" style="fill:rgb(68,189,50);fill-rule:nonzero;"/>
        </g>
    </g>
    <g transform="matrix(0.970217,0,0,1.07102,-3080.19,-331.337)">
        <ellipse cx="3191.1" cy="324.184" rx="15.46" ry="14.005" style="fill:none;stroke:rgb(68,189,50);stroke-width:1.7px;"/>
    </g>
</svg>
